<svg id="Calque_1" data-name="Calque 1" xmlns="http://www.w3.org/2000/svg" viewBox="0 0 68.19 77.49"><defs><style>.cls-1{fill:#7c2d10;}.cls-2{fill:#fccd4a;}.cls-2,.cls-5{stroke:#fff;}.cls-2,.cls-3,.cls-5,.cls-6{stroke-miterlimit:10;}.cls-2,.cls-3,.cls-5{stroke-width:0.25px;}.cls-3{fill:#7c2e12;stroke:#7c2e12;}.cls-4,.cls-6{fill:#1d1d1b;}.cls-5{fill:#fff;}.cls-6{stroke:#1d1d1b;stroke-width:0.5px;}</style></defs><path class="cls-1" d="M20.1,54.17c.73-1.52,1.87-3.91,3.32-6.85,2-4.16,3.08-6.24,3.37-6.73,1.38-2.35,2.39-4.89,3.67-7.3a2.37,2.37,0,0,0,.29-.88,2.53,2.53,0,0,0-.24-1.49,3.18,3.18,0,0,0-.46-.66,4.88,4.88,0,0,1-.9-2.41,6.55,6.55,0,0,1,.08-2.16,11,11,0,0,1,2.05-4.45,14,14,0,0,1,3.22-3.41,6.88,6.88,0,0,1,2.44-1.21,3.75,3.75,0,0,1,2.26,0,3.44,3.44,0,0,1,1.46,1.09A4.62,4.62,0,0,1,41.58,20a16,16,0,0,1-.18,5.81,11.58,11.58,0,0,1-2.27,4.69,5.83,5.83,0,0,1-2,1.64,4.43,4.43,0,0,1-1.7.51,2.48,2.48,0,0,0-1,.13,2.4,2.4,0,0,0-.78.5,2.79,2.79,0,0,0-.46.58A9.7,9.7,0,0,0,32.29,36c-.28.69-.71,1.77-1.25,3.08-.92,2.25-1.24,3-2.61,6.32-.86,2.08-1.52,3.7-2.16,5.26l-1.82,4.43a3.27,3.27,0,0,1-.73,1.18,2.33,2.33,0,0,1-.84.65,1.95,1.95,0,0,1-2.8-1.53A2.7,2.7,0,0,1,20.1,54.17Z"/><path class="cls-2" d="M47.69,52.46a38.89,38.89,0,0,1-8.47-9.4,31.18,31.18,0,0,1-3.85-7.92,50.15,50.15,0,0,1-1.89-10.42,15.15,15.15,0,0,0-.34-2.88c-.09-.19-.11-.14-.3-.48s-.25-.52-.49-.9l-.08-.12A12.4,12.4,0,0,1,30.9,15a13.39,13.39,0,0,1,.17-2.55A17.2,17.2,0,0,1,32.5,8,54.62,54.62,0,0,1,36,2.31C37,.69,37.43.08,37.51.13a12.66,12.66,0,0,1-.92,2.25,32.58,32.58,0,0,0-2.4,6.92c-.26.93-.59,2.24-.9,3.84a.58.58,0,0,0,1.08.39c.31-.66.72-1.51,1.18-2.5C37,7.81,38.16,5.2,38.16,5.2a15.72,15.72,0,0,1,1.17-2.56,13.29,13.29,0,0,1-.48,2c-.44,1.74-.45,2.18-1.09,5.28-.15.74-.38,1.87-.7,3.27a.61.61,0,0,0,.34.78.6.6,0,0,0,.67-.25,17.17,17.17,0,0,0,1-1.57A21.57,21.57,0,0,0,40.5,8.78c.72-2,1-3.18,1-3.17a37.21,37.21,0,0,1-.73,4.51,34.09,34.09,0,0,1-1.17,5c-.13.38-.43,1.25-.91,2.32a15.62,15.62,0,0,1-1.65,3c-.34.47-.65.84-.86,1.08a2.46,2.46,0,0,0-.43.57,2.61,2.61,0,0,0-.24,1.48c.15,1.59.86,5.2,1,6,.12.54.37,1.61.78,2.95a35.18,35.18,0,0,0,1.48,3.93,28.18,28.18,0,0,0,3,5.31,26.67,26.67,0,0,0,3.3,3.74,24.86,24.86,0,0,0,4.15,3.07,3.3,3.3,0,0,1-.69,3.14A3.62,3.62,0,0,1,47.69,52.46Z"/><path class="cls-3" d="M16.43,65.71a.48.48,0,0,1,.24-.34.24.24,0,0,1,.28,0,.39.39,0,0,1,.1.31,4.72,4.72,0,0,1-.13.5,6.19,6.19,0,0,1-.32.83,7.27,7.27,0,0,1-.5.91,2.9,2.9,0,0,1-.71.73,1.57,1.57,0,0,1-.9.3,2.09,2.09,0,0,1-1.31-.44,3,3,0,0,1-.88-1.23,7.62,7.62,0,0,1-.48-1.8,14,14,0,0,1-.16-2.24,12.37,12.37,0,0,1,.25-2.46,12.88,12.88,0,0,1,.65-2.29,5.33,5.33,0,0,1,1-1.7,1.77,1.77,0,0,1,1.29-.66,1.32,1.32,0,0,1,.57.12,1,1,0,0,1,.39.3,1.76,1.76,0,0,1,.24.42,2.23,2.23,0,0,1,.13.45,2.69,2.69,0,0,1,0,.4.2.2,0,0,1-.2.21.38.38,0,0,1-.38-.12.33.33,0,0,1-.08-.22,1.29,1.29,0,0,0,0-.24,2.12,2.12,0,0,0-.09-.31.8.8,0,0,0-.2-.28.41.41,0,0,0-.28-.11c-.2,0-.42.19-.66.58a7,7,0,0,0-.65,1.49,14.88,14.88,0,0,0-.49,2.1,16.73,16.73,0,0,0,.2,6.12c.26.91.62,1.36,1.1,1.36a1,1,0,0,0,.67-.34,3.62,3.62,0,0,0,.6-.83c.17-.33.31-.63.42-.89A6,6,0,0,0,16.43,65.71Z"/><path class="cls-3" d="M23.18,62.88c0-.13.1-.21.18-.23a.24.24,0,0,1,.24.07.25.25,0,0,1,.07.23c-.5,2.17-1.11,3.39-1.82,3.65a.68.68,0,0,1-.27.05c-.91,0-1.36-.65-1.36-2,0-.15,0-.44,0-.86a8.9,8.9,0,0,0,0-1c0-.23-.06-.34-.14-.34s-.13,0-.21.14a2.72,2.72,0,0,0-.27.44,7.55,7.55,0,0,0-.3.76,11.27,11.27,0,0,0-.3,1.14c-.1.47-.19,1-.27,1.53h0v0a.33.33,0,0,1-.22.35.69.69,0,0,1-.49,0c-.18-.07-.28-.16-.3-.3a30.45,30.45,0,0,1-.12-4.56c.05-2.42.13-4,.24-4.73a.26.26,0,0,1,.16-.18.62.62,0,0,1,.31-.07,2.21,2.21,0,0,1,.35,0,.63.63,0,0,1,.28.15.31.31,0,0,1,.09.26c0,.3-.08,1.09-.14,2.36s-.11,2.53-.14,3.76a6.06,6.06,0,0,1,.77-1.81,1.29,1.29,0,0,1,1-.66.76.76,0,0,1,.32.06.6.6,0,0,1,.23.19,1.59,1.59,0,0,1,.15.29,1.8,1.8,0,0,1,.09.41c0,.16,0,.32,0,.48a5.77,5.77,0,0,1,0,.59c0,.23,0,.44,0,.64s0,.44,0,.73,0,.53,0,.76a1.61,1.61,0,0,0,0,.42.65.65,0,0,0,.12.24.22.22,0,0,0,.14.06c.12,0,.26-.14.43-.43a7.12,7.12,0,0,0,.46-1c.14-.4.26-.75.35-1S23.14,63,23.18,62.88Z"/><path class="cls-3" d="M27.87,62.62c.09-.13.18-.18.29-.12a.28.28,0,0,1,.12.31.64.64,0,0,1-.06.18,10.16,10.16,0,0,1-.84,1.35A3.27,3.27,0,0,1,24.93,66a1.91,1.91,0,0,1-1.43-.57,2.16,2.16,0,0,1-.57-1.62,3.4,3.4,0,0,1,.5-1.88,1.41,1.41,0,0,1,1.19-.78,1.43,1.43,0,0,1,1,.37,1.13,1.13,0,0,1,.4.87,2.33,2.33,0,0,1-.06.53,2.22,2.22,0,0,1-.18.49,1,1,0,0,1-.36.4,1.13,1.13,0,0,1-.56.14,2.05,2.05,0,0,1-.62-.1c0,.06,0,.15,0,.26a1.77,1.77,0,0,0,.21.94.61.61,0,0,0,.56.32,1.25,1.25,0,0,0,.48-.1A2.16,2.16,0,0,0,26,65a3.65,3.65,0,0,0,.45-.39c.16-.16.29-.31.41-.44s.23-.3.36-.49l.3-.42.23-.37Zm-2.77-.78c-.18,0-.35.17-.49.49a4.35,4.35,0,0,0-.3,1.12.64.64,0,0,0,.77-.27,1.24,1.24,0,0,0,.2-.66v-.3a.51.51,0,0,0,0-.13.27.27,0,0,0,0-.12.19.19,0,0,0-.05-.09A.09.09,0,0,0,25.1,61.84Z"/><path class="cls-3" d="M33,62.72c.13-.09.23-.11.31-.06a.17.17,0,0,1,.1.19.28.28,0,0,1-.08.2l-.44.36c-.22.2-.54.51-.95.92s-.78.83-1.11,1.24a3,3,0,0,1,.4,1.64,3,3,0,0,1-.2,1.05,3.2,3.2,0,0,1-.47.88,2.86,2.86,0,0,1-.57.58.9.9,0,0,1-.52.22.94.94,0,0,1-.71-.3,1,1,0,0,1-.28-.72,5.57,5.57,0,0,1,1.43-3,1.48,1.48,0,0,0-.43-.73h-.06l-.09,0-.1,0a.33.33,0,0,1-.12,0A.59.59,0,0,1,29,65a.63.63,0,0,1-.12-.11s-.07-.11-.11-.17l.21-.25.27-.34c.11-.15.21-.29.29-.42l.27-.45a2.21,2.21,0,0,0,.2-.46,3.1,3.1,0,0,0,.08-.42A.65.65,0,0,0,30,62a.63.63,0,0,0-.28-.28.65.65,0,0,0-.39.17,2.39,2.39,0,0,0-.45.45c-.15.19-.27.34-.35.46l-.24.35a.25.25,0,0,1-.15.1.31.31,0,0,1-.19,0,.56.56,0,0,1-.17-.09.22.22,0,0,1-.1-.15.26.26,0,0,1,0-.19,5.06,5.06,0,0,1,1-1.23,1.62,1.62,0,0,1,1.05-.45,2,2,0,0,1,1.25.3,1.19,1.19,0,0,1,.36,1,2.51,2.51,0,0,1-.5,1.33,4.28,4.28,0,0,1-1,1.09,1.64,1.64,0,0,1,.62.34A20.7,20.7,0,0,1,32,63.6,8.63,8.63,0,0,1,33,62.72Zm-3.61,6.63c.14,0,.29-.24.45-.74a4.34,4.34,0,0,0,.24-1.29,5.44,5.44,0,0,0,0-.67A4.6,4.6,0,0,0,29.17,69C29.17,69.24,29.23,69.35,29.36,69.35Z"/><path class="cls-3" d="M43,62.79a.43.43,0,0,1,.29.33c.06.19.05.31,0,.38a.11.11,0,0,1-.07,0h-.59c.05.78.1,1.58.12,2.43s0,1.45,0,1.84,0,.67,0,.85-.12.27-.34.32a1,1,0,0,1-.66-.1.51.51,0,0,1-.31-.51,44.43,44.43,0,0,0-.09-4.77l-2.84.13a39.15,39.15,0,0,0-.19,4.61c0,.14-.07.21-.22.19a.6.6,0,0,1-.39-.19.34.34,0,0,1-.07-.17q0-.35,0-1.65c0-.87.08-1.79.16-2.75l-.62,0c-.11,0-.19-.07-.24-.23a.83.83,0,0,1,0-.49.4.4,0,0,1,.3-.3H38c.08-.68.16-1.32.25-1.91s.21-1.17.35-1.75a11.35,11.35,0,0,1,.46-1.5,3.4,3.4,0,0,1,.6-1,1,1,0,0,1,.75-.39.94.94,0,0,1,.71.38,3.3,3.3,0,0,1,.56,1,12.16,12.16,0,0,1,.42,1.49c.12.58.23,1.17.31,1.76s.14,1.23.2,1.92Zm-4.38,0c1.1,0,2,0,2.68,0-.12-1.55-.28-2.89-.47-4s-.39-1.76-.58-1.88-.57.57-.88,1.71A30.75,30.75,0,0,0,38.66,62.76Z"/><path class="cls-3" d="M50.21,62.9c.06-.18.14-.29.24-.32a.21.21,0,0,1,.26.08.4.4,0,0,1,0,.34l-.12.43c0,.18-.14.43-.26.74A8.36,8.36,0,0,1,50,65a2.81,2.81,0,0,1-.46.65A.81.81,0,0,1,49,66a1.62,1.62,0,0,1-1.66-1.45,3.79,3.79,0,0,1-.64.93,1,1,0,0,1-.68.36,1.38,1.38,0,0,1-.91-.31,1.69,1.69,0,0,1-.56-.8,3,3,0,0,1-.17-1.05,4.37,4.37,0,0,1,.1-1,3.48,3.48,0,0,1,.31-.84,1.63,1.63,0,0,1,.55-.61A1.29,1.29,0,0,1,46.1,61a1.72,1.72,0,0,1,1.17.41c0-.78.08-1.58.15-2.39s.13-1.39.17-1.72c0-.08.1-.14.27-.17a1,1,0,0,1,.5,0,.36.36,0,0,1,.25.35s0,1-.06,2.79-.07,2.92-.07,3.27a4,4,0,0,0,.06.73,1.77,1.77,0,0,0,.13.49,1.3,1.3,0,0,0,.16.29.52.52,0,0,0,.13.15l.06,0c.09,0,.2-.09.33-.26a4.22,4.22,0,0,0,.36-.71c.12-.29.22-.54.29-.75Zm-3-.17v-.56a1.91,1.91,0,0,0-.32-.24.56.56,0,0,0-.31-.11.51.51,0,0,0-.37.22,1.75,1.75,0,0,0-.32.61,4.27,4.27,0,0,0-.19.82,3,3,0,0,0,0,.93,2.42,2.42,0,0,0,.34.86c.18,0,.55-.67,1.11-2,0-.08,0-.18,0-.3S47.24,62.76,47.24,62.73Z"/><path class="cls-3" d="M51.28,61.68c0,.21.07.74.11,1.58s.06,1.42.06,1.75a9.26,9.26,0,0,1-.32,2.51,4.11,4.11,0,0,1-1,1.79,2.06,2.06,0,0,1-1.55.68,2.13,2.13,0,0,1-1.17-.31,2,2,0,0,1-.71-.75.33.33,0,0,1,0-.37.33.33,0,0,1,.28-.13.3.3,0,0,1,.22.06l.15.21a2.91,2.91,0,0,0,.26.29,1.37,1.37,0,0,0,.38.29.91.91,0,0,0,.44.12.94.94,0,0,0,.62-.25,2,2,0,0,0,.46-.66,6,6,0,0,0,.31-1,8.78,8.78,0,0,0,.2-1.16c.05-.39.09-.81.11-1.24s0-.83,0-1.19,0-.72,0-1.06,0-.59,0-.77,0-.32,0-.41a.34.34,0,0,1,.25-.41.82.82,0,0,1,.57.06C51.16,61.43,51.27,61.55,51.28,61.68Zm-.58-.92a.7.7,0,0,1-.23-.06l-.17-.07a.26.26,0,0,1-.11-.12l-.07-.13a1.52,1.52,0,0,1,0-.19c0-.09,0-.16,0-.2s0-.13,0-.25a.41.41,0,0,1,.12-.31.75.75,0,0,1,.42-.12,1.06,1.06,0,0,1,.33,0,.28.28,0,0,1,.17.15.68.68,0,0,1,.07.23c0,.08,0,.18,0,.31v.11a.81.81,0,0,1,0,.16,1.28,1.28,0,0,1,0,.17.34.34,0,0,1-.08.16.39.39,0,0,1-.14.1A.62.62,0,0,1,50.7,60.76Z"/><path class="cls-3" d="M57.72,62.84A.28.28,0,0,1,58,62.6a.32.32,0,0,1,.24.16.17.17,0,0,1,0,.12c-.09.32-.17.59-.25.81s-.17.48-.27.76a5.63,5.63,0,0,1-.33.69,4.6,4.6,0,0,1-.38.52,1.6,1.6,0,0,1-.46.37,1.26,1.26,0,0,1-.55.12c-.69,0-1.12-.44-1.28-1.33-.38.89-.77,1.33-1.17,1.33a1.12,1.12,0,0,1-1-.52,2.27,2.27,0,0,1-.37-1.35,7.26,7.26,0,0,1,0-.83,4.65,4.65,0,0,1,.22-.83,2.59,2.59,0,0,1,.42-.73,1.79,1.79,0,0,1,.7-.51,2.46,2.46,0,0,1,1-.2,1.89,1.89,0,0,1,.62.09,1.25,1.25,0,0,1,.39.22,1,1,0,0,1,.2.29,1.07,1.07,0,0,1,.08.27,1.21,1.21,0,0,1,0,.19.11.11,0,0,1,0,.1.21.21,0,0,1-.12,0h-.14a.28.28,0,0,1-.13,0,.1.1,0,0,1-.05-.08.71.71,0,0,0-.09-.33.29.29,0,0,0-.27-.18,1,1,0,0,0-.69.27,1.79,1.79,0,0,0-.48.71,4.43,4.43,0,0,0-.34,1.85,2.37,2.37,0,0,0,.13.77c.19,0,.54-.72,1-2.16a3,3,0,0,1,.06-.3.42.42,0,0,1,.21-.24.5.5,0,0,1,.28-.08,1,1,0,0,1,.43.12c.15.08.23.16.23.25s0,.12,0,.34,0,.43,0,.66,0,.45,0,.7a3,3,0,0,0,.07.61c0,.16.09.24.16.24s.28-.11.45-.32a3.91,3.91,0,0,0,.46-.79c.15-.31.27-.6.38-.86S57.66,63,57.72,62.84Z"/><polygon class="cls-4" points="2.72 71.72 6.68 77.48 61.95 77.48 65.88 71.72 2.72 71.72"/><path class="cls-5" d="M10.09,75.65H9.7l-.62-.72H8.64v.72H8.31V73.58h1a.73.73,0,0,1,.54.2.71.71,0,0,1,.19.48.68.68,0,0,1-.14.42.61.61,0,0,1-.42.22l.61.69ZM8.64,73.89v.74h.63a.38.38,0,0,0,.29-.1.36.36,0,0,0,.1-.27.35.35,0,0,0-.1-.26.35.35,0,0,0-.29-.11Z"/><path class="cls-5" d="M12.52,75.65H11V73.58h1.51v.33H11.33v.55h1.14v.31H11.33v.55h1.19Z"/><path class="cls-5" d="M14.74,74a.51.51,0,0,0-.21-.17.73.73,0,0,0-.3-.06.68.68,0,0,0-.34.08.28.28,0,0,0-.14.23.22.22,0,0,0,.13.2,1.68,1.68,0,0,0,.38.1l.31.06a1.3,1.3,0,0,1,.25.1.52.52,0,0,1,.2.19.65.65,0,0,1,.06.29.54.54,0,0,1-.13.37.67.67,0,0,1-.31.2,1.31,1.31,0,0,1-.41.06.92.92,0,0,1-.89-.47l.25-.16a.68.68,0,0,0,.64.34,1,1,0,0,0,.25,0,.45.45,0,0,0,.19-.11.26.26,0,0,0,.08-.2.23.23,0,0,0-.14-.23,1.08,1.08,0,0,0-.38-.11l-.25,0-.21-.07a.61.61,0,0,1-.18-.11.4.4,0,0,1-.12-.16.51.51,0,0,1,0-.22.47.47,0,0,1,.07-.27.58.58,0,0,1,.19-.19,1.09,1.09,0,0,1,.25-.1,1.27,1.27,0,0,1,.28,0,.83.83,0,0,1,.77.34Z"/><path class="cls-5" d="M16.49,73.88h-.68v-.3h1.68v.3h-.67v1.77h-.33Z"/><path class="cls-5" d="M19.61,75.21H18.49l-.19.44H18l.92-2.07h.36l.93,2.07h-.35Zm-.56-1.28-.43,1h.87Z"/><path class="cls-5" d="M22.65,73.59v1.2a.93.93,0,0,1-.25.68.9.9,0,0,1-.65.21.82.82,0,0,1-.85-.89v-1.2h.33v1.2a.59.59,0,0,0,.14.43.59.59,0,0,0,.79,0,.61.61,0,0,0,.16-.45v-1.2Z"/><path class="cls-5" d="M25.49,75.65H25.1l-.63-.72H24v.72h-.33V73.58h1a.72.72,0,0,1,.53.2.66.66,0,0,1,.19.48.68.68,0,0,1-.13.42.62.62,0,0,1-.43.22l.62.69ZM24,73.89v.74h.62a.4.4,0,0,0,.3-.1.36.36,0,0,0,.1-.27A.35.35,0,0,0,25,74a.36.36,0,0,0-.29-.11Z"/><path class="cls-5" d="M27.82,75.21H26.71l-.2.44h-.35l.93-2.07h.36l.92,2.07H28Zm-.55-1.28-.44,1h.87Z"/><path class="cls-5" d="M30.65,75.05V73.58H31v2.07h-.26l-1.16-1.46v1.46h-.34V73.58h.26Z"/><path class="cls-5" d="M32.53,73.88h-.68v-.3h1.68v.3h-.67v1.77h-.33Z"/><path class="cls-5" d="M36.85,74a.51.51,0,0,0-.21-.17.73.73,0,0,0-.3-.06.68.68,0,0,0-.34.08.27.27,0,0,0-.13.23.21.21,0,0,0,.12.2,1.68,1.68,0,0,0,.38.1l.31.06a1.3,1.3,0,0,1,.25.1.52.52,0,0,1,.2.19.65.65,0,0,1,.06.29.59.59,0,0,1-.12.37.76.76,0,0,1-.32.2,1.31,1.31,0,0,1-.41.06.92.92,0,0,1-.89-.47l.25-.16a.68.68,0,0,0,.64.34,1,1,0,0,0,.25,0,.45.45,0,0,0,.19-.11.26.26,0,0,0,.08-.2.23.23,0,0,0-.14-.23,1.08,1.08,0,0,0-.38-.11l-.25,0-.21-.07a.78.78,0,0,1-.18-.11.4.4,0,0,1-.12-.16.51.51,0,0,1,0-.22.47.47,0,0,1,.07-.27.58.58,0,0,1,.19-.19,1.09,1.09,0,0,1,.25-.1,1.33,1.33,0,0,1,.28,0,.83.83,0,0,1,.77.34Z"/><path class="cls-5" d="M39.65,75.65H38.13V73.58h1.51v.33H38.46v.55H39.6v.31H38.46v.55h1.19ZM39.32,73H39l-.22.39H39l.31-.39Z"/><path class="cls-5" d="M42.06,75.05V73.58h.33v2.07h-.25L41,74.19v1.46h-.33V73.58h.25Z"/><path class="cls-5" d="M45,75.65H43.48V73.58H45v.33H43.81v.55h1.13v.31H43.81v.55H45ZM44.67,73h-.36l-.22.39h.27l.31-.39Z"/><path class="cls-5" d="M47.48,74.06a.78.78,0,0,0-.26-.17,1,1,0,0,0-.3,0,.68.68,0,0,0-.55.23.8.8,0,0,0-.21.57.75.75,0,0,0,.2.52.68.68,0,0,0,.56.22.79.79,0,0,0,.51-.18v-.42h-.58v-.3h.88v.85a1,1,0,0,1-.81.36,1.21,1.21,0,0,1-.48-.09.87.87,0,0,1-.34-.24.92.92,0,0,1-.19-.33,1,1,0,0,1-.07-.39,1.13,1.13,0,0,1,.29-.79,1,1,0,0,1,.79-.32,1.06,1.06,0,0,1,.77.32Z"/><path class="cls-5" d="M50.11,75.21H49l-.19.44h-.35l.92-2.07h.36l.93,2.07h-.35Zm-.56-1.28-.43,1H50Z"/><path class="cls-5" d="M51.84,73.58v1.76h1.08v.31H51.51V73.58Z"/><path class="cls-5" d="M55.23,75.21H54.11l-.19.44h-.35l.92-2.07h.36l.93,2.07h-.35Zm-.56-1.28-.43,1h.87Z"/><path class="cls-5" d="M56.63,75.65V73.58H57v2.07Z"/><path class="cls-5" d="M59.27,74a.51.51,0,0,0-.21-.17.8.8,0,0,0-.3-.06.7.7,0,0,0-.35.08.27.27,0,0,0-.13.23.2.2,0,0,0,.13.2,1.58,1.58,0,0,0,.37.1l.31.06a1.39,1.39,0,0,1,.26.1.5.5,0,0,1,.19.19.54.54,0,0,1,.07.29.59.59,0,0,1-.13.37.79.79,0,0,1-.31.2,1.37,1.37,0,0,1-.42.06.9.9,0,0,1-.88-.47l.24-.16a.7.7,0,0,0,.65.34.88.88,0,0,0,.24,0,.49.49,0,0,0,.2-.11.3.3,0,0,0,.08-.2.24.24,0,0,0-.14-.23,1.14,1.14,0,0,0-.39-.11l-.24,0-.22-.07a.78.78,0,0,1-.18-.11.5.5,0,0,1-.11-.16.51.51,0,0,1,0-.22.57.57,0,0,1,.07-.27.58.58,0,0,1,.19-.19,1,1,0,0,1,.26-.1,1.27,1.27,0,0,1,.28,0,.85.85,0,0,1,.77.34Z"/><rect class="cls-6" x="0.25" y="71.5" width="67.69" height="0.58"/><path class="cls-2" d="M18.79,54.4c.14.2,5.59-4.52,15.2-8.76,6.94-3.06,12.29-4.21,12.24-4.41s-5.79.64-12.1,3.24C24.72,48.34,18.64,54.19,18.79,54.4Z"/></svg>